<svg width="56" height="64" viewBox="0 0 56 64" fill="none" xmlns="http://www.w3.org/2000/svg">
<path fill-rule="evenodd" clip-rule="evenodd" d="M43.9318 15.7798C38.8033 14.4824 33.3705 15.7266 30.413 18.8745C30.2584 19.0386 30.0888 19.1855 29.9065 19.314C30.5637 12.6899 36.1438 7.5 42.908 7.5C43.9391 7.5 44.7747 6.66064 44.7747 5.625C44.7747 4.58936 43.9391 3.75 42.908 3.75C37.4704 3.75 32.6287 6.35889 29.5565 10.3955C28.3023 4.46387 23.048 0 16.7747 0H9.30803C8.27699 0 7.44136 0.839355 7.44136 1.875C7.44136 9.1123 13.3029 14.9985 20.508 14.9985H27.0691C26.5786 16.3872 26.2641 17.8599 26.1532 19.3872C25.9287 19.2417 25.7196 19.0698 25.5339 18.8721C22.4209 15.5605 17.3532 14.2656 12.3078 15.4937C6.89449 16.811 2.74893 20.7729 1.21914 26.0918C-0.133707 30.7939 -0.372873 36.5464 0.562891 41.8745C1.57254 47.6274 3.81206 53.0566 6.86921 57.1631C10.1514 61.5718 14.0666 64 17.8923 64C19.425 64 20.8969 63.6226 22.2663 62.8784C24.0333 61.917 26.0074 61.4092 27.9747 61.4092C29.9415 61.4092 31.9171 61.9175 33.6836 62.877C35.0481 63.6221 36.5196 64 38.0571 64C41.8833 64 45.798 61.5718 49.0807 57.1626C52.1373 53.0566 54.3773 47.6265 55.3865 41.873C56.2887 36.7373 56.0996 31.1567 54.8678 26.562C53.4027 21.0972 49.4171 17.167 43.9318 15.7798ZM20.508 11.25C16.0008 11.25 12.2296 8.02393 11.3623 3.75H16.7747C21.2819 3.75 25.0532 6.97607 25.9204 11.25H20.508ZM46.0906 54.917C48.8041 51.272 50.8 46.4082 51.71 41.2217C52.5087 36.6753 52.3415 31.5596 51.2628 27.5371C49.7525 21.9033 45.4499 20.0312 43.0198 19.4165C39.2223 18.4561 35.1546 19.2915 33.128 21.4487C31.7975 22.8647 29.9196 23.6772 27.9757 23.6777H27.9747H27.9718C26.0298 23.6768 24.1519 22.8638 22.8195 21.4468C20.6573 19.1465 16.8768 18.2402 13.1872 19.1382C9.03095 20.1499 5.97622 23.0635 4.80567 27.1328C3.62345 31.2427 3.4115 36.5098 4.23935 41.2231C5.14935 46.4092 7.14483 51.2725 9.85879 54.917C12.3822 58.3062 15.31 60.25 17.8923 60.25C18.7979 60.25 19.6719 60.0249 20.4896 59.5806C22.8 58.3237 25.3886 57.6592 27.9747 57.6592C30.5593 57.6592 33.1484 58.3232 35.4632 59.5801C36.2784 60.0254 37.1496 60.25 38.0571 60.25C40.6394 60.25 43.5672 58.3062 46.0906 54.917Z" fill="#EF633E"/>
</svg>
