<svg width="18" height="17" viewBox="0 0 18 17" fill="none" xmlns="http://www.w3.org/2000/svg">
<path fill-rule="evenodd" clip-rule="evenodd" d="M17.9841 6.47C17.9461 6.35439 17.8453 6.27008 17.7238 6.25252L11.8953 5.41295L9.28877 0.178196C9.23464 0.0689792 9.12252 0 9.00009 0C8.87765 0 8.76521 0.0689792 8.7114 0.178196L6.10453 5.41327L0.27605 6.25284C0.154583 6.2704 0.0540581 6.35439 0.0157171 6.47031C-0.0219796 6.5856 0.0092732 6.7127 0.0972321 6.79733L4.31507 10.8722L3.31917 16.6262C3.29855 16.746 3.34817 16.867 3.44708 16.9385C3.54664 17.0107 3.67841 17.02 3.78635 16.9628L9.00009 14.2464L14.2132 16.9628C14.2602 16.9874 14.3121 16.9995 14.3633 16.9995C14.43 16.9995 14.4964 16.9791 14.5528 16.9385C14.652 16.867 14.7016 16.746 14.6807 16.6262L13.6851 10.8725L17.9029 6.79733C17.9906 6.71206 18.0222 6.58528 17.9841 6.47Z" fill="#5DC4B8"/>
</svg>
