<svg width="24" height="26" viewBox="0 0 24 26" fill="none" xmlns="http://www.w3.org/2000/svg">
<path fill-rule="evenodd" clip-rule="evenodd" d="M15.9517 5.07323C16.54 4.49382 16.8001 4.2097 16.8 3.54528C16.8001 2.88111 16.5399 2.59699 15.9514 2.01732C15.4828 1.55587 15.4828 0.807708 15.9513 0.346157C16.4199 -0.115445 17.1798 -0.115293 17.6484 0.346055L17.6486 0.346211C18.3034 0.991018 19.2002 1.8742 19.2 3.54523C19.2002 5.21664 18.3034 6.09978 17.6485 6.7445C17.0601 7.32406 16.7999 7.60834 16.7999 8.27261C16.7999 8.92535 16.2627 9.45444 15.5999 9.45444C14.9372 9.45444 14.3999 8.9254 14.3999 8.27261C14.4 6.60124 15.2968 5.71806 15.9517 5.07323ZM10.3517 5.07323C10.94 4.49382 11.2001 4.2097 11.2 3.54528C11.2001 2.88111 10.9399 2.59699 10.3514 2.01732C9.8828 1.55587 9.8828 0.807708 10.3513 0.346157C10.8199 -0.115445 11.5798 -0.115293 12.0485 0.346055L12.0485 0.346093C12.7033 0.99091 13.6002 1.8742 13.6 3.54523C13.6002 5.21664 12.7034 6.09978 12.0485 6.7445C11.4601 7.32406 11.2 7.60834 11.2 8.27261C11.2 8.92535 10.6627 9.45444 9.99995 9.45444C9.33722 9.45444 8.79994 8.9254 8.79994 8.27261C8.79999 6.60124 9.69681 5.71806 10.3517 5.07323ZM5.53403 20.4848H4.40002L4.39688 20.4847C1.97226 20.4831 0 18.5399 0 16.1515C0 13.7621 1.97386 11.8181 4.40002 11.8181H6H22C22.6627 11.8181 23.2 12.3473 23.2 12.9999V16.9393C23.2 19.5898 22.0384 21.9779 20.1903 23.6363H22.8C23.4627 23.6363 24 24.1654 24 24.8182C24 25.4708 23.4627 26 22.8 26H14H5.20001C4.53728 26 4 25.4708 4 24.8182C4 24.1654 4.53728 23.6363 5.20001 23.6363H7.80968C6.8384 22.7647 6.05708 21.6917 5.53403 20.4848ZM4.79999 16.9394V14.1818H4.39997C3.29715 14.1818 2.39997 15.0654 2.39997 16.1515C2.39997 17.2376 3.29715 18.1212 4.39997 18.1212H4.40157H4.87826C4.82691 17.7343 4.79999 17.3399 4.79999 16.9394Z" fill="white"/>
</svg>
